<svg width="60" height="60" viewBox="0 0 60 60" fill="none" xmlns="http://www.w3.org/2000/svg">
<circle cx="30" cy="30" r="30" fill="white" fill-opacity="0.12"/>
<circle cx="30" cy="30" r="29.65" stroke="url(#paint0_linear_0_517)" stroke-opacity="0.2" stroke-width="0.7"/>
<path d="M23.533 21.9255C24.0323 22.0592 24.7057 22.2067 25.3519 22.3466C26.9419 22.6358 28.4986 23.085 29.9983 23.6872C31.4986 23.0857 33.0555 22.6368 34.6457 22.3472C35.2942 22.2067 35.9676 22.0592 36.4727 21.9238C37.2328 21.7119 38.2457 20.616 38.8807 19.6688L40.3062 15.7492L36.8077 14C36.3837 15.7033 34.8873 19.5244 30 19.5244C25.1128 19.5244 23.6163 15.7033 23.1923 14L19.6938 15.7492L21.1199 19.6698C21.755 20.6167 22.7674 21.7119 23.533 21.9255Z" fill="white"/>
<path d="M34.8941 23.4815C33.3904 23.7548 31.9173 24.1753 30.496 24.737C30.1819 24.8861 29.8175 24.8861 29.5034 24.737C28.0816 24.175 26.6079 23.7543 25.1036 23.4809C24.4461 23.3386 23.7568 23.1873 23.2268 23.045C22.7399 22.8889 22.29 22.6349 21.905 22.2985C21.9081 22.3162 21.9091 22.3337 21.9121 22.3513C21.9262 22.4334 21.9336 22.5149 21.9456 22.5968C21.9768 22.8091 22.0041 23.0211 22.0213 23.2324C22.03 23.3388 22.0333 23.4446 22.0384 23.5507C22.0439 23.6666 22.0556 23.7831 22.057 23.8986C22.2652 23.9953 22.4809 24.0749 22.702 24.1367C23.232 24.2807 23.8816 24.4235 24.5692 24.5749L24.6803 24.5992C27.6505 25.2494 28.8403 25.6315 29.228 26.0588C29.2532 26.0863 29.2756 26.116 29.2949 26.1479C29.4587 26.3669 29.715 26.4974 29.9885 26.501C30.262 26.5045 30.5217 26.3807 30.6911 26.1659C30.709 26.1367 30.7297 26.1091 30.7528 26.0837C31.1535 25.6382 32.349 25.2499 35.3204 24.5992L35.4309 24.5748C36.1184 24.4235 36.768 24.2806 37.3003 24.1361C37.5248 24.0707 37.7437 23.987 37.9546 23.8859C37.9595 23.3526 38.008 22.8206 38.0998 22.2952C37.7154 22.6325 37.2658 22.887 36.7788 23.0432C36.2431 23.1873 35.5538 23.3386 34.8941 23.4815Z" fill="white"/>
<path d="M29.9999 18.3635C33.9025 18.3635 35.2031 15.5316 35.6202 14.0124C33.7985 14.5713 31.9055 14.8638 29.9999 14.8809C28.0958 14.8638 26.2041 14.5717 24.3835 14.0136C24.8064 15.533 26.1152 18.3635 29.9999 18.3635Z" fill="white"/>
<path d="M38.0112 25.1172C37.8768 25.1665 37.7426 25.2184 37.6075 25.2557C37.0452 25.4087 36.3821 25.5544 35.6797 25.7086L35.5692 25.733C33.2707 26.2363 31.946 26.6121 31.6296 26.8508C31.24 27.3662 30.6294 27.667 29.9832 27.6619C29.337 27.6567 28.7313 27.3463 28.3499 26.8247C28.0517 26.6075 26.7305 26.2363 24.4314 25.733L24.3203 25.7086C23.6179 25.5544 22.9548 25.4087 22.3948 25.2563C22.2585 25.2186 22.1238 25.1667 21.9887 25.1172C21.5992 28.2241 19.7696 30.291 16.7927 30.9988L18.096 35.7767H22.4543C23.0951 35.7759 23.6144 35.2566 23.6152 34.6158C23.6165 33.334 24.6552 32.2954 25.9369 32.2941H34.0631C35.3449 32.2954 36.3836 33.3341 36.3848 34.6158C36.3857 35.2566 36.9049 35.7759 37.5457 35.7767H41.904L43.2073 30.9988C40.2304 30.291 38.4006 28.2239 38.0112 25.1172Z" fill="white"/>
<path d="M33.0479 35.7637L26.9471 35.7767C26.4217 37.8281 24.5719 39.262 22.4543 39.2593H19.0459L19.9494 42.572C20 42.7587 20.141 42.9075 20.3247 42.9682L29.4196 46V38.0985C29.4196 37.7779 29.6794 37.518 30 37.518C30.3206 37.518 30.5805 37.7778 30.5805 38.0985V46L39.6725 42.9693C39.8563 42.9095 39.9979 42.7615 40.0495 42.5753L40.954 39.2593H37.5458C35.4234 39.2601 33.5711 37.8206 33.0479 35.7637Z" fill="white"/>
<path d="M35.2239 34.6158C35.2231 33.975 34.7038 33.4558 34.063 33.4549H25.9369C25.296 33.4558 24.7768 33.975 24.776 34.6158C24.7747 35.8975 23.7359 36.9363 22.4542 36.9376H18.4125L18.7292 38.0985H22.4542C24.0459 38.0988 25.4349 37.0193 25.8275 35.4768C25.9582 34.9665 26.4202 34.6112 26.947 34.6158H33.053C33.581 34.6116 34.0436 34.9684 34.1736 35.4802C34.5669 37.0212 35.9553 38.0992 37.5457 38.0984H41.2707L41.5873 36.9375H37.5457C36.2639 36.9363 35.2252 35.8976 35.2239 34.6158Z" fill="white"/>
<defs>
<linearGradient id="paint0_linear_0_517" x1="30" y1="0" x2="30" y2="60" gradientUnits="userSpaceOnUse">
<stop stop-color="white"/>
<stop offset="1" stop-color="white" stop-opacity="0.5"/>
</linearGradient>
</defs>
</svg>
