<svg width="40" height="40" viewBox="0 0 40 40" fill="none" xmlns="http://www.w3.org/2000/svg">
<rect width="40" height="40" rx="20" fill="white" fill-opacity="0.1"/>
<path fill-rule="evenodd" clip-rule="evenodd" d="M11.75 15C11.75 14.5858 12.0858 14.25 12.5 14.25H27.5C27.9142 14.25 28.25 14.5858 28.25 15C28.25 15.4142 27.9142 15.75 27.5 15.75H12.5C12.0858 15.75 11.75 15.4142 11.75 15ZM11.75 20C11.75 19.5858 12.0858 19.25 12.5 19.25H27.5C27.9142 19.25 28.25 19.5858 28.25 20C28.25 20.4142 27.9142 20.75 27.5 20.75H12.5C12.0858 20.75 11.75 20.4142 11.75 20ZM12.5 24.25C12.0858 24.25 11.75 24.5858 11.75 25C11.75 25.4142 12.0858 25.75 12.5 25.75H27.5C27.9142 25.75 28.25 25.4142 28.25 25C28.25 24.5858 27.9142 24.25 27.5 24.25H12.5Z" fill="white"/>
</svg>
