<svg width="20" height="17" viewBox="0 0 20 17" fill="none" xmlns="http://www.w3.org/2000/svg">
<path d="M7.77501 8.58334H9.58334C10.5779 8.58334 11.5317 8.97843 12.235 9.68169C12.9383 10.3849 13.3333 11.3388 13.3333 12.3333H7.49918L7.50001 13.1667H14.1667V12.3333C14.1641 11.4466 13.9079 10.5792 13.4283 9.83334H15.8333C16.6211 9.83312 17.3927 10.0562 18.0588 10.4767C18.7249 10.8972 19.2581 11.4979 19.5967 12.2092C17.6258 14.81 14.435 16.5 10.8333 16.5C8.53251 16.5 6.58334 16.0083 5.00001 15.1458V7.39251C6.01385 7.53774 6.97124 7.94858 7.77501 8.58334ZM4.16668 14.8333C4.16668 15.0544 4.07888 15.2663 3.9226 15.4226C3.76632 15.5789 3.55436 15.6667 3.33334 15.6667H1.66668C1.44566 15.6667 1.2337 15.5789 1.07742 15.4226C0.921141 15.2663 0.833344 15.0544 0.833344 14.8333V7.33334C0.833344 7.11232 0.921141 6.90036 1.07742 6.74408C1.2337 6.5878 1.44566 6.5 1.66668 6.5H3.33334C3.55436 6.5 3.76632 6.5878 3.9226 6.74408C4.07888 6.90036 4.16668 7.11232 4.16668 7.33334V14.8333ZM15 3.16667C15.6631 3.16667 16.2989 3.43006 16.7678 3.8989C17.2366 4.36775 17.5 5.00363 17.5 5.66667C17.5 6.32971 17.2366 6.9656 16.7678 7.43444C16.2989 7.90328 15.6631 8.16667 15 8.16667C14.337 8.16667 13.7011 7.90328 13.2322 7.43444C12.7634 6.9656 12.5 6.32971 12.5 5.66667C12.5 5.00363 12.7634 4.36775 13.2322 3.8989C13.7011 3.43006 14.337 3.16667 15 3.16667ZM9.16668 0.666672C9.82972 0.666672 10.4656 0.930064 10.9344 1.3989C11.4033 1.86775 11.6667 2.50363 11.6667 3.16667C11.6667 3.82971 11.4033 4.4656 10.9344 4.93444C10.4656 5.40328 9.82972 5.66667 9.16668 5.66667C8.50364 5.66667 7.86775 5.40328 7.39891 4.93444C6.93007 4.4656 6.66668 3.82971 6.66668 3.16667C6.66668 2.50363 6.93007 1.86775 7.39891 1.3989C7.86775 0.930064 8.50364 0.666672 9.16668 0.666672Z" fill="#FFB548"/>
</svg>
