<svg width="20" height="17" viewBox="0 0 20 17" fill="none" xmlns="http://www.w3.org/2000/svg">
<path d="M7.77504 8.58334H9.58337C10.5779 8.58334 11.5318 8.97843 12.235 9.68169C12.9383 10.3849 13.3334 11.3388 13.3334 12.3333H7.49921L7.50004 13.1667H14.1667V12.3333C14.1641 11.4466 13.9079 10.5792 13.4284 9.83334H15.8334C16.6211 9.83312 17.3927 10.0562 18.0588 10.4767C18.7249 10.8972 19.2581 11.4979 19.5967 12.2092C17.6259 14.81 14.435 16.5 10.8334 16.5C8.53254 16.5 6.58337 16.0083 5.00004 15.1458V7.39251C6.01389 7.53774 6.97127 7.94858 7.77504 8.58334ZM4.16671 14.8333C4.16671 15.0544 4.07891 15.2663 3.92263 15.4226C3.76635 15.5789 3.55439 15.6667 3.33337 15.6667H1.66671C1.44569 15.6667 1.23373 15.5789 1.07745 15.4226C0.921171 15.2663 0.833374 15.0544 0.833374 14.8333V7.33334C0.833374 7.11232 0.921171 6.90036 1.07745 6.74408C1.23373 6.5878 1.44569 6.5 1.66671 6.5H3.33337C3.55439 6.5 3.76635 6.5878 3.92263 6.74408C4.07891 6.90036 4.16671 7.11232 4.16671 7.33334V14.8333ZM15 3.16667C15.6631 3.16667 16.299 3.43006 16.7678 3.8989C17.2367 4.36775 17.5 5.00363 17.5 5.66667C17.5 6.32971 17.2367 6.9656 16.7678 7.43444C16.299 7.90328 15.6631 8.16667 15 8.16667C14.337 8.16667 13.7011 7.90328 13.2323 7.43444C12.7634 6.9656 12.5 6.32971 12.5 5.66667C12.5 5.00363 12.7634 4.36775 13.2323 3.8989C13.7011 3.43006 14.337 3.16667 15 3.16667ZM9.16671 0.666672C9.82975 0.666672 10.4656 0.930064 10.9345 1.3989C11.4033 1.86775 11.6667 2.50363 11.6667 3.16667C11.6667 3.82971 11.4033 4.4656 10.9345 4.93444C10.4656 5.40328 9.82975 5.66667 9.16671 5.66667C8.50367 5.66667 7.86778 5.40328 7.39894 4.93444C6.9301 4.4656 6.66671 3.82971 6.66671 3.16667C6.66671 2.50363 6.9301 1.86775 7.39894 1.3989C7.86778 0.930064 8.50367 0.666672 9.16671 0.666672Z" fill="white"/>
</svg>
