<svg width="60" height="60" viewBox="0 0 60 60" fill="none" xmlns="http://www.w3.org/2000/svg">
<circle cx="30" cy="30" r="30" fill="white" fill-opacity="0.12"/>
<circle cx="30" cy="30" r="29.65" stroke="url(#paint0_linear_1_788)" stroke-opacity="0.2" stroke-width="0.7"/>
<g clip-path="url(#clip0_1_788)">
<path d="M27.3708 36.675C27.2326 36.6038 27.0629 36.6581 26.9916 36.7962C26.9205 36.9344 26.9747 37.1041 27.1129 37.1754C27.1224 37.1803 27.126 37.1905 27.1574 37.2183C27.4356 37.4649 28.116 38.0679 29.1574 37.7713C29.3072 37.7287 29.394 37.5728 29.3514 37.423C29.3088 37.2733 29.1529 37.1865 29.0031 37.229C28.2569 37.4416 27.7409 36.9843 27.5299 36.7973C27.4668 36.7414 27.4211 36.7009 27.3708 36.675Z" fill="white"/>
<path d="M32.6226 28.0963C32.6887 28.1327 32.7604 28.1496 32.8308 28.1487C32.8154 28.1682 32.7884 28.203 32.7468 28.2505C32.6439 28.3684 32.5358 28.5247 32.4428 28.6942C32.2868 28.9785 32.1732 29.2825 32.2138 29.4543C32.2673 29.6809 32.1271 29.9081 31.9005 29.9617C31.6738 30.0153 31.4467 29.8749 31.3931 29.6484C31.2991 29.2501 31.4626 28.7274 31.704 28.2874C31.828 28.0613 31.9727 27.8524 32.1109 27.6941C32.2861 27.4934 32.4777 27.3513 32.6524 27.31C32.7844 27.2789 32.9111 27.2927 33.0294 27.3576C33.2334 27.4698 33.3077 27.7264 33.1954 27.9303C33.1194 28.0682 32.9777 28.1468 32.8308 28.1487C32.8399 28.1372 32.8449 28.131 32.8465 28.1307L32.843 28.116C32.8578 28.1219 32.8615 28.1271 32.8465 28.1307L32.843 28.116C32.8022 28.1001 32.6775 28.0802 32.6305 28.0819L32.6226 28.0963Z" fill="white"/>
<path d="M28.0924 39.5742C27.8979 39.7029 27.8446 39.965 27.9733 40.1594C28.1021 40.3539 28.3641 40.4072 28.5587 40.2785C28.5692 40.2714 32.2717 37.8494 30.2092 35.3211C30.0622 35.1404 29.7965 35.113 29.6157 35.26C29.4349 35.4069 29.4075 35.6727 29.5545 35.8535C31.023 37.6535 28.1008 39.5686 28.0924 39.5742Z" fill="white"/>
<path fill-rule="evenodd" clip-rule="evenodd" d="M31.0053 27.5162L31.3058 26.3977C31.4119 26.0025 34.6521 22.9183 35.1691 22.394C36.0655 21.4851 36.979 20.5703 37.9284 19.7168C38.2655 19.4137 38.6197 19.1034 38.9881 18.8387C39.2752 18.6325 39.651 18.3856 40.0215 18.4783L40.2087 18.5251L40.8429 19.3307L42.0319 18.0033L41.5974 17.5687L40.7283 16.6997L40.2937 16.2651L39.578 16.9808L38.6066 16.0095L37.6864 16.9297L38.5555 17.7988L20.0485 36.3058L19.5373 35.7945L17.6457 37.6862L18.2081 39.5778C17.0322 40.1401 15.703 41.5716 15.703 41.5716C15.8357 42.6329 17.9905 43.5458 18.7193 45.5081C19.47 46.7593 21.8669 45.591 19.5038 42.3757C19.2443 42.0228 19.1659 40.9564 19.7467 40.8884L20.8148 40.7633L22.027 39.6958L20.4264 38.0952L27.7705 30.751L28.5737 29.9478L31.0053 27.5162Z" fill="white"/>
<path fill-rule="evenodd" clip-rule="evenodd" d="M44.297 14.8691L43.4279 14L41.1273 16.3006L41.9964 17.1697L44.297 14.8691Z" fill="white"/>
<path fill-rule="evenodd" clip-rule="evenodd" d="M39.8847 19.0257C39.1421 18.84 32.6488 25.8526 31.7048 26.7966L32.6506 27.9607L33.034 28.4327L40.4607 19.7573L39.8847 19.0257Z" fill="white"/>
<path fill-rule="evenodd" clip-rule="evenodd" d="M28.2147 31.1048L21.2244 38.0952L22.4513 39.3221C22.4513 39.3221 23.3205 38.3508 23.8828 38.4019C25.3129 38.5449 25.1231 43.0741 25.2121 44.2301L28.5351 42.8497C29.1085 42.6115 28.8418 41.4907 28.4192 40.2064C28.3887 40.1138 28.3574 40.0204 28.3256 39.9263C27.9974 38.9569 27.6102 37.9259 27.4453 37.1287L29.8819 35.5874C31.3471 34.6605 29.7362 34.472 30.5248 33.3288L30.953 32.7082C30.0122 32.2927 29.0689 31.7853 28.2646 31.1446L28.2147 31.1048Z" fill="white"/>
<path fill-rule="evenodd" clip-rule="evenodd" d="M31.8716 29.2689C31.2049 28.7475 30.938 28.3815 30.938 28.3815L28.6163 30.7033C29.296 31.2448 30.1293 31.7159 31.0276 32.1233C31.0319 32.1107 31.0372 32.0982 31.0435 32.0859L31.6284 30.9451L31.6281 30.9449L31.6284 30.9442L31.6279 30.944C31.6303 30.9394 31.6328 30.9349 31.6354 30.9304L32.296 29.6229C32.3012 29.6126 32.307 29.6028 32.3133 29.5935C32.1498 29.4803 32.003 29.3716 31.8716 29.2689Z" fill="white"/>
<path fill-rule="evenodd" clip-rule="evenodd" d="M40.0731 32.3584C36.4825 31.786 34.1807 30.7662 32.7857 29.9026L32.2574 30.9483C33.0869 31.3571 34.1932 31.8161 35.586 32.2183C36.7618 32.5578 38.1386 32.8559 39.7201 33.0478C39.7447 33.0508 39.7682 33.057 39.7902 33.0657L40.0731 32.3584Z" fill="white"/>
<path fill-rule="evenodd" clip-rule="evenodd" d="M32.0019 31.4496L31.5439 32.3431L31.5419 32.3467C35.0536 33.8111 39.2712 34.363 39.2712 34.363L39.5778 33.5967C37.9903 33.4001 36.609 33.1 35.4287 32.7591C33.9985 32.3462 32.8583 31.8722 32.0019 31.4496Z" fill="white"/>
</g>
<defs>
<linearGradient id="paint0_linear_1_788" x1="30" y1="0" x2="30" y2="60" gradientUnits="userSpaceOnUse">
<stop stop-color="white"/>
<stop offset="1" stop-color="white" stop-opacity="0.5"/>
</linearGradient>
<clipPath id="clip0_1_788">
<rect width="32" height="32" fill="white" transform="translate(14 14)"/>
</clipPath>
</defs>
</svg>
