<svg width="24" height="24" viewBox="0 0 24 24" fill="none" xmlns="http://www.w3.org/2000/svg">
<circle cx="12" cy="12" r="12" fill="white" fill-opacity="0.12"/>
<circle cx="12" cy="12" r="11.74" stroke="url(#paint0_linear_2_269)" stroke-opacity="0.2" stroke-width="0.52"/>
<g clip-path="url(#clip0_2_269)">
<path d="M14.1808 16.0419L14.0341 16.6417C13.594 16.8154 13.2424 16.9476 12.9806 17.0385C12.7185 17.1297 12.414 17.175 12.067 17.175C11.5342 17.175 11.1198 17.0445 10.8242 16.7853C10.5286 16.525 10.3808 16.1951 10.3808 15.795C10.3808 15.6401 10.3915 15.4808 10.4138 15.3184C10.4363 15.1559 10.472 14.9729 10.521 14.7683L11.071 12.8215C11.12 12.635 11.1615 12.4584 11.1949 12.2914C11.2286 12.1254 11.2449 11.9726 11.2449 11.8351C11.2449 11.5865 11.1934 11.4126 11.091 11.3148C10.9885 11.2173 10.7929 11.1678 10.5026 11.1678C10.3604 11.1678 10.2143 11.1906 10.0653 11.2346C9.91568 11.2789 9.78779 11.3216 9.68042 11.3613L9.82751 10.7611C10.1878 10.6144 10.5323 10.4888 10.8617 10.3845C11.1912 10.2799 11.5025 10.2276 11.7969 10.2276C12.3261 10.2276 12.7344 10.3555 13.0212 10.6113C13.3079 10.8673 13.4512 11.1991 13.4512 11.608C13.4512 11.6926 13.4418 11.8416 13.4216 12.0547C13.4018 12.2682 13.365 12.4638 13.3114 12.6418L12.7637 14.5808C12.7188 14.7366 12.6784 14.9146 12.6433 15.115C12.6071 15.314 12.5898 15.4661 12.5898 15.5681C12.5898 15.8256 12.6472 16.0014 12.7623 16.0948C12.8782 16.1883 13.0779 16.2347 13.3615 16.2347C13.4947 16.2347 13.6462 16.2111 13.8146 16.1647C13.9825 16.1183 14.1049 16.0776 14.1808 16.0419ZM14.3197 7.90124C14.3197 8.23908 14.1924 8.52761 13.9365 8.76485C13.6813 9.00293 13.3738 9.12207 13.014 9.12207C12.6531 9.12207 12.3448 9.00293 12.0867 8.76485C11.829 8.52751 11.6999 8.23908 11.6999 7.90124C11.6999 7.56406 11.829 7.27507 12.0867 7.03481C12.3444 6.79494 12.6532 6.67505 13.014 6.67505C13.3737 6.67505 13.6813 6.79522 13.9365 7.03481C14.1926 7.27507 14.3197 7.56416 14.3197 7.90124Z" fill="white"/>
</g>
<defs>
<linearGradient id="paint0_linear_2_269" x1="12" y1="0" x2="12" y2="24" gradientUnits="userSpaceOnUse">
<stop stop-color="white"/>
<stop offset="1" stop-color="white" stop-opacity="0.5"/>
</linearGradient>
<clipPath id="clip0_2_269">
<rect width="10.5" height="10.5" fill="white" transform="translate(6.75 6.67505)"/>
</clipPath>
</defs>
</svg>
