<svg width="40" height="40" viewBox="0 0 40 40" fill="none" xmlns="http://www.w3.org/2000/svg">
<path d="M20 0C8.95436 0 0 8.95436 0 20C0 31.0456 8.95436 40 20 40C31.0456 40 40 31.0456 40 20C40 8.95436 31.0456 0 20 0ZM20 31.9206C13.4169 31.9206 8.07943 26.5836 8.07943 20C8.07943 13.4164 13.4169 8.07943 20 8.07943C26.5831 8.07943 31.9206 13.4169 31.9206 20C31.9206 26.5831 26.5831 31.9206 20 31.9206Z" fill="#395648"/>
<path d="M7.07721 32.7053L9.51705 30.2062L8.26544 28.9844L8.81831 28.4182L11.8834 31.4109L11.3305 31.9768L10.0844 30.7591L7.64456 33.2579L7.07721 32.7053Z" fill="white"/>
<path d="M11.8755 36.258C11.7405 36.2037 11.6232 36.1129 11.5368 35.9958C11.4505 35.8805 11.3942 35.7457 11.3729 35.6033C11.3513 35.4592 11.3702 35.3119 11.4275 35.178L12.4319 32.7469C12.4864 32.6118 12.5772 32.4944 12.6944 32.4079C12.8096 32.3217 12.9444 32.2653 13.0866 32.244C13.2307 32.2224 13.378 32.2413 13.512 32.2986L15.943 33.303C16.0781 33.3574 16.1954 33.4482 16.282 33.5652C16.3682 33.6806 16.4245 33.8154 16.4459 33.9578C16.4675 34.1019 16.4486 34.2491 16.3913 34.3831L15.3869 36.8142C15.3326 36.9493 15.2418 37.0666 15.1247 37.1532C15.0094 37.2393 14.8745 37.2956 14.7321 37.3171C14.5881 37.3386 14.4408 37.3197 14.3068 37.2624L11.8755 36.258ZM12.2054 35.5383L14.5696 36.5153C14.5881 36.5226 14.6087 36.5226 14.6273 36.5153C14.6365 36.5126 14.645 36.5077 14.6522 36.5012C14.6593 36.4947 14.6649 36.4866 14.6685 36.4776L15.6456 34.1135C15.6491 34.1047 15.6507 34.0953 15.6502 34.0859C15.6497 34.0764 15.6472 34.0672 15.6429 34.0588C15.6345 34.0409 15.6197 34.0267 15.6013 34.0192L13.2372 33.0422C13.2285 33.0384 13.2192 33.0365 13.2098 33.0364C13.2004 33.0364 13.1911 33.0382 13.1824 33.0418C13.1737 33.0454 13.1658 33.0507 13.1591 33.0573C13.1525 33.064 13.1473 33.0719 13.1437 33.0807L12.1667 35.4451C12.1594 35.4626 12.1594 35.4823 12.1667 35.4998C12.174 35.5174 12.1879 35.5313 12.2054 35.5385V35.5383Z" fill="white"/>
<path d="M17.924 38.0925L17.9933 33.8094L18.7855 33.8223L18.7582 35.5653L19.7637 35.5814L21.2554 33.8622L22.112 33.8761L22.1082 34.102L20.4709 35.9917L22.0522 37.9333L22.0483 38.1595L21.1857 38.1453L19.7505 36.3788L18.7434 36.3621L18.7161 38.1051L17.924 38.0925Z" fill="white"/>
<path d="M24.8302 37.5812L23.2603 33.5956L26.9305 32.1497L27.2206 32.8873L24.2866 34.0427L24.6354 34.9286L26.9939 33.9998L27.2859 34.7417L24.9277 35.6705L25.2765 36.5563L28.2105 35.4006L28.5006 36.1381L24.8302 37.5812Z" fill="white"/>
<path d="M30.9003 34.6327L27.9521 31.525L28.578 30.9312L32.6398 31.3917L30.4857 29.1212L31.0593 28.5766L34.0078 31.6843L33.3817 32.2781L29.3117 31.8176L31.4696 34.0922L30.9003 34.6327Z" fill="white"/>
<path d="M9.78386 11.0071L7.23366 8.62083L6.0386 9.89838L5.4606 9.35753L8.38857 6.22961L8.9663 6.77019L7.77533 8.0431L10.3255 10.4291L9.78386 11.0071Z" fill="white"/>
<path d="M15.679 7.04009L16.4627 6.69345L16.3736 6.49213L14.901 5.77783L15.1174 5.68168C15.2513 5.62374 15.3674 5.53115 15.4536 5.41344C15.5394 5.29682 15.5932 5.15981 15.6096 5.01599C15.6273 4.8705 15.6048 4.72295 15.5446 4.58932L15.0778 3.53275C15.02 3.3992 14.9263 3.28431 14.8071 3.20087C14.6889 3.11748 14.5517 3.06516 14.408 3.04872C14.2625 3.03102 14.1149 3.05351 13.9813 3.11373L10.8255 4.50956L12.5557 8.42199L13.2738 8.10431L12.6819 6.76584L13.9633 6.19576L15.679 7.04009ZM12.4249 6.00701C12.4079 6.01536 12.3883 6.01683 12.3702 6.0111C12.3616 6.00855 12.3537 6.00408 12.3471 5.99802C12.3405 5.99197 12.3353 5.98448 12.332 5.97614L11.8903 4.97639C11.8864 4.96783 11.8842 4.95858 11.8839 4.94917C11.8836 4.93976 11.8852 4.93038 11.8886 4.9216C11.892 4.91281 11.8971 4.9048 11.9036 4.89802C11.9101 4.89125 11.918 4.88585 11.9266 4.88215L14.2665 3.84743C14.2846 3.83927 14.3051 3.83829 14.3239 3.8447C14.3331 3.8473 14.3417 3.85193 14.349 3.85826C14.3563 3.86459 14.3621 3.87246 14.3659 3.8813L14.8101 4.88105C14.8141 4.88945 14.8159 4.8987 14.8155 4.908C14.8151 4.91729 14.8124 4.92633 14.8076 4.93432C14.7983 4.95128 14.7836 4.96464 14.7658 4.97229L12.4249 6.00701Z" fill="white"/>
<path d="M18.694 6.38425C18.5483 6.38327 18.4058 6.34185 18.2823 6.26461C18.1602 6.18891 18.0587 6.08419 17.9868 5.95976C17.9135 5.83389 17.8768 5.69014 17.8805 5.54456L17.9239 2.91461C17.9249 2.76892 17.9664 2.62637 18.0439 2.50296C18.1196 2.38077 18.2244 2.27923 18.349 2.20741C18.475 2.13421 18.6188 2.09742 18.7644 2.10115L21.393 2.14376C21.5387 2.14478 21.6812 2.1862 21.8047 2.2634C21.9267 2.33937 22.0281 2.44426 22.1 2.56879C22.1733 2.69461 22.2102 2.83838 22.2065 2.98399L22.1639 5.6134C22.1628 5.75907 22.1213 5.90159 22.044 6.02505C21.9682 6.14724 21.8634 6.24878 21.7389 6.3206C21.6129 6.39392 21.4691 6.43072 21.3234 6.42686L18.694 6.38425ZM18.7366 5.59373L21.2947 5.63498C21.3148 5.63561 21.3344 5.62847 21.3493 5.61504C21.357 5.60912 21.3631 5.60154 21.3674 5.59288C21.3716 5.58422 21.3739 5.5747 21.3739 5.56505L21.4154 3.00694C21.4158 2.99716 21.414 2.98742 21.4101 2.97844C21.4063 2.96945 21.4004 2.96146 21.393 2.95504C21.3782 2.94116 21.3587 2.93344 21.3384 2.93346L18.7803 2.89194C18.7709 2.8917 18.7616 2.89334 18.7529 2.89677C18.7441 2.90019 18.7362 2.90533 18.7295 2.91188C18.7227 2.91835 18.7172 2.92614 18.7135 2.93478C18.7098 2.94343 18.7079 2.95273 18.7079 2.96214L18.6664 5.52025C18.666 5.52964 18.6676 5.53899 18.6711 5.54774C18.6745 5.55648 18.6797 5.56442 18.6863 5.57106C18.6927 5.57807 18.7005 5.5837 18.7091 5.5876C18.7178 5.5915 18.7271 5.59359 18.7366 5.59373Z" fill="white"/>
<path d="M24.3366 7.04363C24.2031 6.98554 24.0883 6.89155 24.005 6.77211C23.9224 6.65435 23.8701 6.51802 23.8528 6.37522C23.8349 6.2307 23.8574 6.08403 23.9179 5.95155L24.9884 3.54968C25.0464 3.41608 25.1404 3.30119 25.2599 3.2178C25.3776 3.1352 25.514 3.08293 25.6568 3.06565C25.8013 3.04776 25.948 3.07036 26.0804 3.13093L28.4826 4.20116C28.6161 4.25943 28.7308 4.3535 28.8142 4.47295C28.8967 4.59064 28.949 4.72687 28.9663 4.86958C28.9842 5.01409 28.9617 5.16073 28.9013 5.29324L27.8308 7.69538C27.7728 7.82895 27.6788 7.94376 27.5593 8.027C27.4416 8.10978 27.3053 8.16206 27.1624 8.17915C27.0179 8.19727 26.8712 8.17475 26.7387 8.11413L24.3366 7.04363ZM24.686 6.33342L27.0228 7.37497C27.0409 7.383 27.0614 7.38397 27.0802 7.3777C27.0895 7.37516 27.0982 7.37055 27.1055 7.36421C27.1128 7.35788 27.1187 7.34998 27.1225 7.3411L28.1638 5.0037C28.1678 4.99515 28.1699 4.98582 28.1699 4.97638C28.1699 4.96694 28.1678 4.95762 28.1638 4.94907C28.1559 4.93087 28.1415 4.91626 28.1234 4.90809L25.7865 3.86682C25.778 3.86295 25.7687 3.86082 25.7594 3.86054C25.75 3.86026 25.7406 3.86185 25.7319 3.8652C25.7231 3.86855 25.7151 3.87361 25.7083 3.88007C25.7015 3.88654 25.6961 3.89429 25.6923 3.90287L24.651 6.23973C24.6471 6.24828 24.645 6.25751 24.6447 6.26689C24.6444 6.27627 24.646 6.28561 24.6494 6.29437C24.6527 6.30313 24.6578 6.31114 24.6643 6.31794C24.6707 6.32474 24.6785 6.33019 24.6871 6.33397L24.686 6.33342Z" fill="white"/>
<path d="M28.6736 9.33323L31.8261 6.44159L34.1588 8.98468C34.2585 9.09169 34.327 9.22394 34.3569 9.3671C34.3873 9.50843 34.3817 9.65513 34.3408 9.79377C34.2997 9.93357 34.2206 10.0592 34.1124 10.1568L33.2618 10.9369C33.1548 11.0367 33.0225 11.1052 32.8794 11.1352C32.7379 11.1654 32.5909 11.1584 32.453 11.1148C32.3134 11.071 32.1882 10.9906 32.0902 10.882L30.2841 8.92185L29.2054 9.91205L28.6736 9.33323ZM30.9189 8.43645L32.6483 10.3212C32.6613 10.3356 32.6787 10.3452 32.6977 10.3486C32.7068 10.3505 32.7162 10.3502 32.7251 10.3476C32.734 10.3451 32.7421 10.3405 32.7488 10.3341L33.5554 9.59382C33.5626 9.58734 33.5682 9.57934 33.5719 9.57041C33.5756 9.56148 33.5773 9.55184 33.5767 9.54219C33.5768 9.52205 33.5694 9.5026 33.556 9.48756L31.8264 7.60278C31.8202 7.5957 31.8126 7.58999 31.8041 7.58599C31.7956 7.58199 31.7863 7.5798 31.7769 7.57956C31.7675 7.57904 31.7581 7.58045 31.7493 7.58369C31.7405 7.58693 31.7324 7.59194 31.7256 7.59841L30.9189 8.33839C30.912 8.34419 30.9066 8.35149 30.9029 8.35973C30.8993 8.36796 30.8976 8.37692 30.8979 8.38592C30.8983 8.4048 30.9058 8.42284 30.9189 8.43645Z" fill="white"/>
<path d="M4.73161 26.6708L4.7816 25.6808L3.85669 25.3276L4.81274 25.0692L4.86245 24.0801L5.40385 24.91L6.35963 24.651L5.73819 25.4227L6.27877 26.2528L5.35304 25.8994L4.73161 26.6708Z" fill="white"/>
<path d="M36.2212 24.9988L35.4498 25.621L35.8032 26.5462L34.9731 26.0051L34.2023 26.6274L34.4607 25.6708L33.6306 25.1302L34.6199 25.0799L34.8783 24.1236L35.2318 25.0491L36.2212 24.9988Z" fill="white"/>
<path d="M4.73161 15.9196L4.7816 14.9297L3.85669 14.5765L4.81274 14.3181L4.86245 13.329L5.40385 14.1588L6.35963 13.8999L5.73819 14.6715L6.27877 15.5017L5.35304 15.1482L4.73161 15.9196Z" fill="white"/>
<path d="M36.2212 14.2476L35.4498 14.8699L35.8032 15.795L34.9731 15.2539L34.2023 15.8762L34.4607 14.9196L33.6306 14.379L34.6199 14.3287L34.8783 13.3724L35.2318 14.2979L36.2212 14.2476Z" fill="white"/>
<path d="M3.14456 21.144L3.51741 20.2256L2.76022 19.5878L3.74823 19.6588L4.12109 18.741L4.35874 19.7025L5.34675 19.7733L4.50542 20.2969L4.74307 21.259L3.98533 20.6203L3.14456 21.144Z" fill="white"/>
<path d="M37.1253 19.0907L36.6012 19.9323L37.2395 20.6895L36.278 20.4516L35.7544 21.2937L35.6839 20.3049L34.7216 20.0678L35.6394 19.6944L35.5686 18.7064L36.2073 19.4641L37.1253 19.0907Z" fill="white"/>
<path d="M23.6057 25.2496C23.6056 26.0171 23.3605 26.7645 22.9062 27.3831C22.452 28.0018 21.8121 28.4593 21.0798 28.6891L21.0337 25.2821L23.3667 23.9572C23.5253 24.3696 23.6064 24.8077 23.6057 25.2496Z" fill="#395648"/>
<path d="M27.2146 14.8879L24.2951 16.6088L21.6662 15.0936C21.8796 14.8154 22.1324 14.5698 22.4166 14.3645L23.071 13.9905C23.768 13.6832 24.5444 13.6045 25.2888 13.7659C26.0333 13.9272 26.7074 14.3203 27.2146 14.8887V14.8879Z" fill="#395648"/>
<path d="M14.9332 20.8506C14.4186 20.7723 13.927 20.5834 13.4923 20.2971C13.0576 20.0107 12.6901 19.6336 12.415 19.1917C12.1399 18.7498 11.9637 18.2536 11.8986 17.7371C11.8334 17.2207 11.8809 16.6962 12.0377 16.1999L14.8919 17.8227L14.9029 18.6755L14.9332 20.8506Z" fill="#395648"/>
<path d="M22.8294 17.4711L21.123 18.4758L20.941 18.5834L19.9577 19.163L19.198 18.7309L18.8566 18.5372L16.9928 17.4771L16.3348 17.1045L14.8707 16.2722L12.6726 15.0225C13.0983 14.497 13.663 14.1016 14.3025 13.8814C14.942 13.6612 15.6304 13.625 16.2894 13.7769C16.5102 13.8281 16.7257 13.8996 16.9333 13.9905L17.6509 14.4139L19.1508 15.2992L19.9582 15.7756L20.911 16.3383L21.0315 16.4091L22.8294 17.4711Z" fill="#395648"/>
<path d="M28.13 17.2875C28.13 17.782 28.0283 18.2711 27.8312 18.7246C27.6341 19.178 27.3459 19.5861 26.9844 19.9235C26.8978 20.0043 26.8072 20.0807 26.7129 20.1524L25.8625 20.6356L24.2039 21.578L22.8499 22.3491L22.4292 22.5881L21.0069 23.3964L20.9848 21.7823L20.9779 21.2846L20.9667 20.4845L21.6114 20.1057L22.0107 19.8699L24.4541 18.4307L25.9393 17.5566L28.0035 16.3397C28.0879 16.6485 28.1304 16.9673 28.13 17.2875Z" fill="#395648"/>
<path d="M19.3338 28.7915C18.6308 28.6587 17.9832 28.3198 17.4732 27.818C16.9633 27.3162 16.614 26.6741 16.4698 25.9734C16.4646 25.9461 16.4594 25.9207 16.4545 25.8934V25.8914L16.4381 24.7068V24.704L16.4176 23.1651L16.3919 21.2639L16.3851 20.7755L16.3578 18.655L18.1677 19.6845L18.6285 19.9467L19.2202 20.283L19.2363 21.5045L19.2398 21.7266L19.2756 24.3798L19.3013 26.2662L19.3338 28.7915Z" fill="#395648"/>
</svg>
