<svg width="65" height="66" viewBox="0 0 65 66" fill="none" xmlns="http://www.w3.org/2000/svg">
<path d="M32.5 0.365601C14.5508 0.365601 0 14.9164 0 32.8656C0 50.8148 14.5508 65.3656 32.5 65.3656C50.4492 65.3656 65 50.8148 65 32.8656C65 14.9164 50.4492 0.365601 32.5 0.365601ZM32.5 52.2365C21.8025 52.2365 13.1291 43.564 13.1291 32.8656C13.1291 22.1672 21.8025 13.4947 32.5 13.4947C43.1975 13.4947 51.8709 22.1681 51.8709 32.8656C51.8709 43.5631 43.1975 52.2365 32.5 52.2365Z" fill="#395648"/>
<path d="M11.5005 53.5118L15.4652 49.4507L13.4314 47.4653L14.3298 46.5451L19.3106 51.4083L18.4121 52.328L16.3872 50.3492L12.4224 54.4098L11.5005 53.5118Z" fill="white"/>
<path d="M19.2976 59.2849C19.0782 59.1966 18.8877 59.049 18.7472 58.8588C18.607 58.6715 18.5155 58.4523 18.4809 58.2209C18.4458 57.9868 18.4765 57.7475 18.5697 57.5298L20.2018 53.5793C20.2904 53.3597 20.438 53.1691 20.6284 53.0284C20.8155 52.8883 21.0346 52.7968 21.2658 52.7621C21.4999 52.727 21.7392 52.7577 21.9569 52.8508L25.9074 54.483C26.1269 54.5714 26.3176 54.7189 26.4583 54.9091C26.5983 55.0965 26.6898 55.3156 26.7246 55.547C26.7597 55.7811 26.7289 56.0204 26.6358 56.2381L25.0037 60.1886C24.9154 60.4082 24.7679 60.5989 24.5776 60.7395C24.3902 60.8795 24.1711 60.971 23.9397 61.0058C23.7056 61.0409 23.4663 61.0101 23.2486 60.917L19.2976 59.2849ZM19.8338 58.1153L23.6756 59.703C23.7057 59.7148 23.7392 59.7148 23.7693 59.703C23.7843 59.6985 23.7982 59.6906 23.8098 59.68C23.8214 59.6694 23.8304 59.6563 23.8363 59.6418L25.424 55.8C25.4298 55.7857 25.4323 55.7704 25.4316 55.7551C25.4308 55.7398 25.4267 55.7248 25.4196 55.7112C25.4061 55.682 25.382 55.659 25.3521 55.6468L21.5104 54.0591C21.4963 54.0531 21.4812 54.0499 21.4659 54.0498C21.4506 54.0497 21.4354 54.0527 21.4213 54.0585C21.4072 54.0643 21.3943 54.0729 21.3836 54.0838C21.3728 54.0946 21.3643 54.1075 21.3586 54.1217L19.7708 57.9639C19.759 57.9924 19.7591 58.0244 19.7709 58.0528C19.7827 58.0813 19.8053 58.1039 19.8338 58.1157V58.1153Z" fill="white"/>
<path d="M29.1265 62.266L29.2392 55.306L30.5265 55.3268L30.4821 58.1592L32.116 58.1854L34.54 55.3916L35.932 55.4143L35.9258 55.7814L33.2652 58.8521L35.8348 62.0072L35.8286 62.3748L34.4268 62.3517L32.0947 59.4811L30.4581 59.454L30.4137 62.2864L29.1265 62.266Z" fill="white"/>
<path d="M40.3491 61.4351L37.7981 54.9584L43.7621 52.6089L44.2335 53.8074L39.4658 55.685L40.0326 57.1245L43.865 55.6153L44.3396 56.8209L40.5075 58.3301L41.0744 59.7696L45.8421 57.8916L46.3135 59.09L40.3491 61.4351Z" fill="white"/>
<path d="M50.213 56.6438L45.4222 51.5938L46.4392 50.6288L53.0397 51.3772L49.5392 47.6876L50.4714 46.8025L55.2626 51.8525L54.2452 52.8175L47.6314 52.0692L51.1381 55.7653L50.213 56.6438Z" fill="white"/>
<path d="M15.8988 18.2522L11.7548 14.3745L9.81279 16.4505L8.87354 15.5716L13.6315 10.4887L14.5703 11.3672L12.635 13.4357L16.779 17.3129L15.8988 18.2522Z" fill="white"/>
<path d="M25.4783 11.8058L26.7518 11.2425L26.6071 10.9153L24.2141 9.75459L24.5657 9.59834C24.7833 9.5042 24.9719 9.35374 25.1121 9.16245C25.2514 8.97295 25.3388 8.7503 25.3655 8.51661C25.3943 8.28018 25.3577 8.0404 25.2599 7.82327L24.5013 6.10634C24.4074 5.88932 24.2551 5.70262 24.0614 5.56703C23.8694 5.43152 23.6464 5.3465 23.4129 5.31978C23.1765 5.29103 22.9367 5.32756 22.7196 5.42543L17.5914 7.69365L20.403 14.0513L21.5699 13.5351L20.608 11.3601L22.6903 10.4337L25.4783 11.8058ZM20.1903 10.127C20.1627 10.1406 20.1309 10.143 20.1016 10.1337C20.0876 10.1295 20.0747 10.1222 20.064 10.1124C20.0532 10.1026 20.0448 10.0904 20.0394 10.0768L19.3217 8.45224C19.3153 8.43834 19.3117 8.4233 19.3113 8.40801C19.3108 8.39272 19.3134 8.37749 19.3189 8.36321C19.3244 8.34894 19.3327 8.33591 19.3433 8.3249C19.3539 8.31389 19.3666 8.30512 19.3807 8.2991L23.183 6.61769C23.2124 6.60443 23.2457 6.60284 23.2762 6.61325C23.2913 6.61747 23.3053 6.625 23.3171 6.63529C23.3289 6.64558 23.3383 6.65837 23.3446 6.67273L24.0663 8.29733C24.0728 8.31097 24.0758 8.32601 24.0752 8.34111C24.0745 8.35621 24.07 8.3709 24.0623 8.38389C24.0472 8.41144 24.0233 8.43316 23.9944 8.44559L20.1903 10.127Z" fill="white"/>
<path d="M30.3777 10.74C30.141 10.7384 29.9095 10.6711 29.7088 10.5456C29.5103 10.4226 29.3453 10.2524 29.2285 10.0502C29.1095 9.84567 29.0497 9.61207 29.0558 9.37551L29.1264 5.10183C29.128 4.86508 29.1954 4.63344 29.3213 4.43291C29.4444 4.23434 29.6147 4.06934 29.8171 3.95263C30.0218 3.83368 30.2556 3.77391 30.4922 3.77996L34.7637 3.8492C35.0004 3.85086 35.2319 3.91817 35.4326 4.04362C35.6309 4.16707 35.7958 4.33752 35.9125 4.53988C36.0317 4.74434 36.0916 4.97797 36.0856 5.21458L36.0163 9.48737C36.0146 9.72409 35.9471 9.95567 35.8215 10.1563C35.6984 10.3549 35.528 10.5199 35.3257 10.6366C35.121 10.7557 34.8872 10.8155 34.6505 10.8092L30.3777 10.74ZM30.447 9.45541L34.6039 9.52243C34.6366 9.52346 34.6684 9.51185 34.6927 9.49003C34.7051 9.48041 34.7151 9.46809 34.722 9.45402C34.7289 9.43995 34.7326 9.42448 34.7326 9.4088L34.8001 5.25187C34.8007 5.23598 34.7978 5.22015 34.7915 5.20555C34.7852 5.19096 34.7757 5.17796 34.7637 5.16753C34.7396 5.14497 34.7079 5.13243 34.6749 5.13246L30.518 5.06499C30.5028 5.06461 30.4876 5.06728 30.4734 5.07284C30.4592 5.07841 30.4463 5.08676 30.4354 5.0974C30.4243 5.10791 30.4155 5.12057 30.4095 5.13462C30.4034 5.14866 30.4003 5.16379 30.4004 5.17907L30.3329 9.336C30.3323 9.35125 30.3349 9.36646 30.3405 9.38066C30.3461 9.39487 30.3545 9.40777 30.3653 9.41857C30.3757 9.42996 30.3883 9.43911 30.4023 9.44545C30.4164 9.45179 30.4316 9.45517 30.447 9.45541Z" fill="white"/>
<path d="M39.547 11.8115C39.33 11.7171 39.1435 11.5643 39.0081 11.3703C38.8739 11.1789 38.7889 10.9574 38.7609 10.7253C38.7317 10.4905 38.7682 10.2521 38.8665 10.0369L40.6061 6.13382C40.7004 5.91671 40.8532 5.73002 41.0473 5.5945C41.2387 5.46028 41.4602 5.37535 41.6922 5.34726C41.9271 5.31819 42.1655 5.35492 42.3807 5.45335L46.2842 7.19247C46.5011 7.28716 46.6876 7.44002 46.823 7.63413C46.9572 7.82537 47.0421 8.04675 47.0703 8.27865C47.0993 8.51348 47.0627 8.75177 46.9646 8.96711L45.2251 12.8706C45.1308 13.0876 44.978 13.2742 44.7839 13.4095C44.5927 13.544 44.371 13.6289 44.1389 13.6567C43.9041 13.6861 43.6657 13.6496 43.4504 13.5511L39.547 11.8115ZM40.1147 10.6574L43.9121 12.3499C43.9415 12.363 43.9748 12.3645 44.0053 12.3544C44.0205 12.3502 44.0346 12.3427 44.0465 12.3324C44.0584 12.3221 44.0678 12.3093 44.0741 12.2949L45.7662 8.49659C45.7727 8.4827 45.776 8.46754 45.776 8.4522C45.776 8.43686 45.7727 8.42171 45.7662 8.40782C45.7533 8.37824 45.7299 8.35451 45.7005 8.34123L41.9031 6.64916C41.8892 6.64288 41.8742 6.63942 41.859 6.63897C41.8437 6.63852 41.8285 6.64109 41.8143 6.64654C41.8001 6.65198 41.787 6.6602 41.776 6.67071C41.765 6.68121 41.7561 6.69381 41.7499 6.70776L40.0579 10.5051C40.0516 10.519 40.0481 10.534 40.0477 10.5493C40.0472 10.5645 40.0498 10.5797 40.0552 10.5939C40.0607 10.6082 40.0689 10.6212 40.0794 10.6322C40.0899 10.6433 40.1025 10.6521 40.1165 10.6583L40.1147 10.6574Z" fill="white"/>
<path d="M46.5946 15.5321L51.7174 10.8332L55.5082 14.9657C55.6701 15.1396 55.7814 15.3545 55.83 15.5871C55.8794 15.8168 55.8704 16.0552 55.8038 16.2805C55.737 16.5076 55.6086 16.7118 55.4327 16.8704L54.0505 18.1381C53.8765 18.3001 53.6617 18.4116 53.429 18.4603C53.1991 18.5094 52.9603 18.4979 52.7361 18.4271C52.5094 18.356 52.3058 18.2254 52.1467 18.0489L49.2117 14.8636L47.4588 16.4727L46.5946 15.5321ZM50.2433 14.0748L53.0535 17.1376C53.0746 17.1609 53.1029 17.1765 53.1338 17.182C53.1485 17.1851 53.1638 17.1846 53.1783 17.1805C53.1927 17.1764 53.206 17.1688 53.2168 17.1584L54.5276 15.9555C54.5393 15.945 54.5484 15.932 54.5544 15.9175C54.5604 15.903 54.5631 15.8873 54.5622 15.8716C54.5623 15.8389 54.5503 15.8073 54.5285 15.7829L51.7179 12.7201C51.7078 12.7086 51.6955 12.6993 51.6816 12.6928C51.6678 12.6863 51.6528 12.6828 51.6375 12.6824C51.6223 12.6815 51.607 12.6838 51.5926 12.6891C51.5783 12.6943 51.5652 12.7025 51.5541 12.713L50.2433 13.9155C50.2321 13.9249 50.2232 13.9367 50.2173 13.9501C50.2114 13.9635 50.2086 13.9781 50.2091 13.9927C50.2098 14.0234 50.222 14.0527 50.2433 14.0748Z" fill="white"/>
<path d="M7.68884 43.7056L7.77007 42.097L6.26709 41.523L7.82067 41.1031L7.90146 39.4958L8.78123 40.8444L10.3344 40.4236L9.32454 41.6775L10.203 43.0265L8.69866 42.4521L7.68884 43.7056Z" fill="white"/>
<path d="M58.8594 40.9886L57.6059 41.9998L58.1803 43.5032L56.8313 42.6239L55.5787 43.635L55.9986 42.0806L54.6497 41.2021L56.2574 41.1205L56.6773 39.5664L57.2517 41.0703L58.8594 40.9886Z" fill="white"/>
<path d="M7.68884 26.2349L7.77007 24.6263L6.26709 24.0524L7.82067 23.6325L7.90146 22.0252L8.78123 23.3737L10.3344 22.9529L9.32454 24.2068L10.203 25.5558L8.69866 24.9814L7.68884 26.2349Z" fill="white"/>
<path d="M58.8594 23.518L57.6059 24.5291L58.1803 26.0325L56.8313 25.1532L55.5787 26.1644L55.9986 24.6099L54.6497 23.7315L56.2574 23.6498L56.6773 22.0958L57.2517 23.5996L58.8594 23.518Z" fill="white"/>
<path d="M5.10989 34.7246L5.71579 33.2322L4.48535 32.1958L6.09087 32.3112L6.69676 30.8198L7.08294 32.3822L8.68845 32.4972L7.3213 33.3481L7.70748 34.9114L6.47615 33.8737L5.10989 34.7246Z" fill="white"/>
<path d="M60.3288 31.388L59.4769 32.7556L60.5143 33.986L58.9518 33.5994L58.1009 34.9679L57.9864 33.361L56.4226 32.9757L57.914 32.3689L57.7991 30.7634L58.8369 31.9948L60.3288 31.388Z" fill="white"/>
<path d="M38.3593 41.3961C38.3591 42.6433 37.9609 43.8579 37.2226 44.8632C36.4844 45.8685 35.4447 46.6119 34.2547 46.9854L34.1797 41.4489L37.9709 39.2961C38.2287 39.9662 38.3603 40.6782 38.3593 41.3961Z" fill="#395648"/>
<path d="M44.2237 24.5584L39.4795 27.3548L35.2076 24.8926C35.5544 24.4406 35.9652 24.0415 36.427 23.7079L37.4905 23.1002C38.6231 22.6008 39.8847 22.4729 41.0944 22.7352C42.3041 22.9974 43.3997 23.6361 44.2237 24.5597V24.5584Z" fill="#395648"/>
<path d="M24.2665 34.2479C23.4302 34.1205 22.6315 33.8137 21.9251 33.3483C21.2187 32.883 20.6215 32.2702 20.1744 31.5521C19.7273 30.834 19.441 30.0276 19.3352 29.1884C19.2294 28.3492 19.3065 27.497 19.5614 26.6904L24.1995 29.3275L24.2172 30.7133L24.2665 34.2479Z" fill="#395648"/>
<path d="M37.0977 28.7561L34.3248 30.3887L34.0291 30.5636L32.4312 31.5055L31.1967 30.8033L30.6419 30.4886L27.6133 28.7659L26.544 28.1605L24.1648 26.808L20.5929 24.7772C21.2847 23.9232 22.2024 23.2807 23.2415 22.9228C24.2806 22.565 25.3994 22.5062 26.4703 22.7531C26.829 22.8362 27.1793 22.9524 27.5165 23.1002L28.6826 23.7882L31.12 25.2269L32.4321 26.001L33.9803 26.9154L34.1761 27.0303L37.0977 28.7561Z" fill="#395648"/>
<path d="M45.7112 28.4578C45.7112 29.2613 45.5459 30.0562 45.2257 30.7931C44.9054 31.5299 44.437 32.1931 43.8496 32.7413C43.7089 32.8726 43.5616 32.9967 43.4084 33.1132L42.0266 33.8985L39.3313 35.4299L37.131 36.6829L36.4475 37.0713L34.1362 38.3848L34.1002 35.7619L34.0891 34.9531L34.0709 33.653L35.1185 33.0373L35.7674 32.6543L39.7379 30.3155L42.1513 28.8951L45.5057 26.9176C45.6427 27.4195 45.7119 27.9375 45.7112 28.4578Z" fill="#395648"/>
<path d="M31.4174 47.1519C30.275 46.9359 29.2226 46.3853 28.3939 45.5698C27.5653 44.7544 26.9977 43.7111 26.7633 42.5724C26.7549 42.528 26.7464 42.4867 26.7384 42.4423V42.4392L26.7118 40.5141V40.5096L26.6785 38.0088L26.6368 34.9194L26.6257 34.1258L26.5813 30.6799L29.5224 32.3529L30.2713 32.779L31.2327 33.3255L31.2589 35.3105L31.2647 35.6714L31.3228 39.9828L31.3645 43.0482L31.4174 47.1519Z" fill="#395648"/>
</svg>
