<svg width="60" height="60" viewBox="0 0 60 60" fill="none" xmlns="http://www.w3.org/2000/svg">
<circle cx="30" cy="30" r="30" fill="white" fill-opacity="0.12"/>
<circle cx="30" cy="30" r="29.65" stroke="url(#paint0_linear_1_493)" stroke-opacity="0.2" stroke-width="0.7"/>
<path d="M38.5333 23.0667H44.9339V24.1333H38.5333V23.0667Z" fill="white"/>
<path d="M18.2667 41.7333C19.4449 41.7333 20.4 40.7782 20.4 39.6C20.4 38.4218 19.4449 37.4667 18.2667 37.4667C17.0885 37.4667 16.1334 38.4218 16.1334 39.6C16.1334 40.7782 17.0885 41.7333 18.2667 41.7333Z" fill="white"/>
<path d="M25.7333 41.7333C26.9115 41.7333 27.8666 40.7782 27.8666 39.6C27.8666 38.4218 26.9115 37.4667 25.7333 37.4667C24.5551 37.4667 23.6 38.4218 23.6 39.6C23.6 40.7782 24.5551 41.7333 25.7333 41.7333Z" fill="white"/>
<path d="M40.6667 41.7333C41.8449 41.7333 42.8 40.7782 42.8 39.6C42.8 38.4218 41.8449 37.4667 40.6667 37.4667C39.4885 37.4667 38.5333 38.4218 38.5333 39.6C38.5333 40.7782 39.4885 41.7333 40.6667 41.7333Z" fill="white"/>
<path d="M33.2 41.7333C34.3782 41.7333 35.3333 40.7782 35.3333 39.6C35.3333 38.4218 34.3782 37.4667 33.2 37.4667C32.0218 37.4667 31.0667 38.4218 31.0667 39.6C31.0667 40.7782 32.0218 41.7333 33.2 41.7333Z" fill="white"/>
<path d="M38 30.5333H42.2267L41.6043 29.4667H38V30.5333Z" fill="white"/>
<path d="M35.3333 20.4H27.8667C27.5838 20.4 27.3124 20.5124 27.1124 20.7124C26.9124 20.9125 26.8 21.1838 26.8 21.4667V23.6C26.8 23.7415 26.8562 23.8771 26.9562 23.9771C27.0562 24.0772 27.1919 24.1334 27.3333 24.1334H37.4667V22.5334C37.4667 21.9676 37.2419 21.4249 36.8418 21.0249C36.4417 20.6248 35.8991 20.4 35.3333 20.4Z" fill="white"/>
<path d="M44.4 33.7333H15.6C15.4585 33.7333 15.3229 33.7895 15.2229 33.8895C15.1228 33.9896 15.0667 34.1252 15.0667 34.2667V37.5573C15.0667 37.6282 15.0809 37.6983 15.1084 37.7636C15.1359 37.8289 15.1761 37.888 15.2267 37.9376L15.4256 38.1365C15.7325 37.5398 16.2196 37.0548 16.8176 36.7503C17.4157 36.4458 18.0944 36.3374 18.7576 36.4403C19.4207 36.5432 20.0346 36.8523 20.5123 37.3237C20.9899 37.7951 21.307 38.4049 21.4187 39.0667H22.5813C22.7067 38.3213 23.0921 37.6445 23.6691 37.1564C24.2462 36.6683 24.9775 36.4005 25.7333 36.4005C26.4891 36.4005 27.2205 36.6683 27.7975 37.1564C28.3746 37.6445 28.76 38.3213 28.8853 39.0667H30.048C30.1733 38.3213 30.5588 37.6445 31.1358 37.1564C31.7128 36.6683 32.4442 36.4005 33.2 36.4005C33.9558 36.4005 34.6871 36.6683 35.2642 37.1564C35.8412 37.6445 36.2266 38.3213 36.352 39.0667H37.5147C37.6161 38.4626 37.889 37.9005 38.3008 37.4471C38.7127 36.9938 39.2461 36.6683 39.8377 36.5095C40.4292 36.3507 41.054 36.3652 41.6375 36.5514C42.221 36.7375 42.7387 37.0874 43.1291 37.5595L44.8267 35.2965C44.8968 35.2047 44.9343 35.0921 44.9333 34.9765V34.2667C44.9333 34.1252 44.8771 33.9896 44.7771 33.8895C44.6771 33.7895 44.5414 33.7333 44.4 33.7333Z" fill="white"/>
<path d="M42.849 31.6H38C37.7171 31.6 37.4458 31.4876 37.2457 31.2876C37.0457 31.0875 36.9333 30.8162 36.9333 30.5333V29.4666C36.9333 29.1838 37.0457 28.9124 37.2457 28.7124C37.4458 28.5124 37.7171 28.4 38 28.4H40.9824L40.6666 27.8624C40.5727 27.7019 40.4385 27.5687 40.2774 27.4759C40.1162 27.3831 39.9337 27.334 39.7477 27.3333H17.5568C17.432 27.3334 17.3112 27.3773 17.2154 27.4573C17.1196 27.5373 17.0549 27.6484 17.0325 27.7712L16.2277 32.6667H43.4709L42.849 31.6Z" fill="white"/>
<path d="M28.9333 25.2H35.3334V26.2667H28.9333V25.2Z" fill="white"/>
<path d="M23.2848 25.6037C23.2559 25.4883 23.1892 25.3859 23.0954 25.3127C23.0015 25.2396 22.8859 25.1999 22.7669 25.2H20.1664C20.0473 25.1999 19.9317 25.2397 19.8378 25.3129C19.744 25.3862 19.6773 25.4888 19.6485 25.6043L19.4827 26.2667H23.4507L23.2848 25.6037Z" fill="white"/>
<path d="M30.5333 18.2667H33.7333V19.3333H30.5333V18.2667Z" fill="white"/>
<defs>
<linearGradient id="paint0_linear_1_493" x1="30" y1="0" x2="30" y2="60" gradientUnits="userSpaceOnUse">
<stop stop-color="white"/>
<stop offset="1" stop-color="white" stop-opacity="0.5"/>
</linearGradient>
</defs>
</svg>
