<svg width="18" height="20" viewBox="0 0 18 20" fill="none" xmlns="http://www.w3.org/2000/svg">
<path d="M7.35674 14.1718C7.27037 14.1273 7.16431 14.1612 7.11978 14.2476C7.07531 14.334 7.10922 14.44 7.19559 14.4846C7.20149 14.4876 7.20375 14.494 7.22341 14.5114C7.39725 14.6655 7.82254 15.0424 8.47339 14.857C8.567 14.8304 8.62126 14.7329 8.59464 14.6394C8.56802 14.5458 8.47058 14.4915 8.37697 14.5181C7.91057 14.6509 7.58807 14.3651 7.45621 14.2483C7.41677 14.2133 7.38821 14.188 7.35674 14.1718Z" fill="#FFB548"/>
<path d="M10.6392 8.81015C10.6805 8.83289 10.7253 8.84341 10.7694 8.84286C10.7597 8.85504 10.7428 8.87682 10.7168 8.90653C10.6525 8.98021 10.5849 9.07788 10.5269 9.18381C10.4294 9.36153 10.3583 9.55152 10.3837 9.65888C10.4172 9.80052 10.3295 9.94249 10.1879 9.97598C10.0463 10.0095 9.90429 9.92177 9.87079 9.78018C9.81202 9.53122 9.91426 9.20457 10.0651 8.92955C10.1426 8.78828 10.233 8.65771 10.3194 8.55875C10.4289 8.4333 10.5487 8.34449 10.6578 8.3187C10.7404 8.29923 10.8196 8.30785 10.8935 8.34841C11.021 8.41858 11.0674 8.57891 10.9972 8.70638C10.9497 8.79257 10.8612 8.8417 10.7694 8.84286C10.775 8.83571 10.7782 8.83183 10.7791 8.8316L10.777 8.82247C10.7862 8.82611 10.7885 8.82939 10.7791 8.8316L10.777 8.82247C10.7515 8.8125 10.6735 8.80004 10.6442 8.80115L10.6392 8.81015Z" fill="#FFB548"/>
<path d="M7.80769 15.9838C7.68612 16.0643 7.65281 16.2281 7.73327 16.3496C7.81373 16.4712 7.97752 16.5045 8.09909 16.424C8.10569 16.4196 10.4197 14.9058 9.13067 13.3257C9.03881 13.2127 8.87272 13.1956 8.75973 13.2874C8.64674 13.3793 8.62962 13.5454 8.72148 13.6584C9.63933 14.7834 7.8129 15.9804 7.80769 15.9838Z" fill="#FFB548"/>
<path fill-rule="evenodd" clip-rule="evenodd" d="M9.62842 8.44761L9.81619 7.7485C9.88254 7.50153 11.9076 5.57388 12.2308 5.24621C12.791 4.67813 13.362 4.1064 13.9553 3.57296C14.166 3.38353 14.3874 3.18957 14.6176 3.02417C14.797 2.89526 15.0319 2.74098 15.2635 2.79888L15.3805 2.82813L15.7769 3.33162L16.52 2.50203L16.2484 2.23043L15.7053 1.68726L15.4336 1.41565L14.9863 1.86299L14.3792 1.25587L13.8041 1.83102L14.3473 2.37419L2.7804 13.9411L2.4609 13.6215L1.27864 14.8038L1.63011 15.9861C0.895195 16.3375 0.0644531 17.2322 0.0644531 17.2322C0.147361 17.8955 1.49415 18.4661 1.94966 19.6925C2.41882 20.4745 3.91689 19.7443 2.43995 17.7348C2.27778 17.5142 2.22878 16.8477 2.59174 16.8052L3.2593 16.727L4.01696 16.0598L3.01657 15.0595L7.60665 10.4693L8.10862 9.96736L9.62842 8.44761Z" fill="#FFB548"/>
<path fill-rule="evenodd" clip-rule="evenodd" d="M17.9357 0.54317L17.3926 0L15.9547 1.43786L16.4979 1.98107L17.9357 0.54317Z" fill="#FFB548"/>
<path fill-rule="evenodd" clip-rule="evenodd" d="M15.178 3.14107C14.7139 3.02504 10.6556 7.40791 10.0656 7.99791L10.6567 8.72549L10.8963 9.02045L15.538 3.59838L15.178 3.14107Z" fill="#FFB548"/>
<path fill-rule="evenodd" clip-rule="evenodd" d="M7.88432 10.6905L3.51538 15.0594L4.28222 15.8263C4.28222 15.8263 4.82544 15.2192 5.17691 15.2511C6.07072 15.3405 5.95211 18.1713 6.0077 18.8938L8.08461 18.031C8.44295 17.8822 8.27626 17.1817 8.01212 16.379C7.99307 16.3211 7.97351 16.2627 7.95362 16.2039C7.7485 15.5981 7.50651 14.9537 7.40348 14.4554L8.92633 13.4921C9.8421 12.9128 8.8353 12.795 9.32818 12.0805L9.59578 11.6926C9.00776 11.4329 8.41822 11.1158 7.91556 10.7153L7.88432 10.6905Z" fill="#FFB548"/>
<path fill-rule="evenodd" clip-rule="evenodd" d="M10.1698 9.54303C9.75313 9.21712 9.58635 8.98842 9.58635 8.98842L8.13525 10.4395C8.56008 10.7779 9.08087 11.0724 9.64231 11.327C9.64504 11.3191 9.64836 11.3113 9.65228 11.3037L10.0178 10.5906L10.0176 10.5905L10.0178 10.5901L10.0175 10.59C10.019 10.5871 10.0206 10.5843 10.0222 10.5814L10.4351 9.76426C10.4384 9.75785 10.442 9.75171 10.4459 9.7459C10.3437 9.67517 10.252 9.60721 10.1698 9.54303Z" fill="#FFB548"/>
<path fill-rule="evenodd" clip-rule="evenodd" d="M15.2959 11.474C13.0517 11.1163 11.6131 10.4789 10.7412 9.93912L10.411 10.5927C10.9295 10.8482 11.6209 11.1351 12.4914 11.3864C13.2263 11.5986 14.0867 11.7849 15.0752 11.9049C15.0906 11.9068 15.1053 11.9106 15.119 11.9161L15.2959 11.474Z" fill="#FFB548"/>
<path fill-rule="evenodd" clip-rule="evenodd" d="M10.2513 10.906L9.96507 11.4644L9.96387 11.4667C12.1587 12.382 14.7947 12.7269 14.7947 12.7269L14.9863 12.2479C13.9941 12.1251 13.1308 11.9375 12.3931 11.7245C11.4992 11.4664 10.7866 11.1701 10.2513 10.906Z" fill="#FFB548"/>
</svg>
